<?xml version="1.0" encoding="utf-8"?>
<!-- Generator: Adobe Illustrator 16.0.0, SVG Export Plug-In . SVG Version: 6.00 Build 0)  -->
<!DOCTYPE svg PUBLIC "-//W3C//DTD SVG 1.1//EN" "http://www.w3.org/Graphics/SVG/1.1/DTD/svg11.dtd">
<svg version="1.1" id="Layer_1" xmlns="http://www.w3.org/2000/svg" xmlns:xlink="http://www.w3.org/1999/xlink" x="0px" y="0px"
	 width="612px" height="275.215px" viewBox="0 96.214 612 275.215" enable-background="new 0 96.214 612 275.215"
	 xml:space="preserve">
<rect x="-9" y="96.214" fill="#656565" width="630" height="275.215"/>
<g>
	<path fill="#696969" d="M224.042,266.478c-0.387,0.624-0.793,0.611-0.956-0.096c-0.254-1.104-0.384-2.235-0.566-3.354
		c0.956,0.322,1.117,1.25,1.52,1.994C224.041,265.507,224.042,265.994,224.042,266.478z"/>
	<path fill="#616161" d="M202.593,312.272c-0.305,0.421-0.397,0.696-0.573,0.769c-0.793,0.322-1.264,1.471-2.304,1.051
		c-0.417-0.168-0.214-0.758-0.005-1.104C200.393,311.865,201.346,311.964,202.593,312.272z"/>
	<path fill="#686868" d="M313.516,309.498c0.562-1.263,0.166-2.857,1.357-3.898C314.735,307.007,316.895,309.216,313.516,309.498z"
		/>
	<path fill="#656565" d="M244.506,262.466c-0.213-0.25-0.461-0.479-0.633-0.756c-0.332-0.533-0.976-1.09-0.366-1.74
		c0.507-0.541,1.059-0.002,1.574,0.195c0.307,0.119,0.618,0.226,0.928,0.338C245.992,261.528,245.234,261.985,244.506,262.466z"/>
	<path fill="#F9F9F9" d="M318.417,300.513c0,1.441-1.238,2.611-2.765,2.611l0,0c-1.528,0-2.768-1.17-2.768-2.611v-29.307
		c0-1.441,1.238-2.61,2.768-2.61l0,0c1.525,0,2.765,1.169,2.765,2.61V300.513z"/>
	<g>
		<path fill="#F9F9F9" d="M376.906,300.339c0,1.443-1.238,2.611-2.766,2.611l0,0c-1.527,0-2.767-1.168-2.767-2.611v-29.305
			c0-1.443,1.238-2.611,2.767-2.611l0,0c1.526,0,2.766,1.168,2.766,2.611V300.339z"/>
		<path fill="#F9F9F9" d="M403.328,297.576c1.44,0,2.612,1.236,2.613,2.764l0,0c0,1.527-1.168,2.768-2.61,2.769l-29.306,0.017
			c-1.441,0.002-2.612-1.235-2.613-2.766l0,0c0-1.525,1.168-2.766,2.61-2.766L403.328,297.576z"/>
	</g>
	<g>
		<path fill="#F9F9F9" d="M441.425,300.253c0,1.442-1.237,2.611-2.765,2.611l0,0c-1.528,0-2.768-1.169-2.768-2.611v-29.305
			c0-1.443,1.238-2.611,2.768-2.611l0,0c1.525,0,2.765,1.168,2.765,2.611V300.253z"/>
		<path fill="#F9F9F9" d="M467.847,297.49c1.441,0,2.612,1.236,2.613,2.764l0,0c0,1.527-1.168,2.768-2.61,2.769l-29.306,0.017
			c-1.44,0.002-2.612-1.236-2.613-2.766l0,0c0-1.525,1.168-2.766,2.61-2.766L467.847,297.49z"/>
	</g>
	<path fill="#F9F9F9" d="M265.917,300.511c0,1.443-1.238,2.611-2.765,2.611l0,0c-1.528,0-2.767-1.168-2.767-2.611v-29.305
		c0-1.441,1.238-2.61,2.767-2.61l0,0c1.526,0,2.765,1.169,2.765,2.61V300.511z"/>
	<path fill="#F9F9F9" d="M231.082,300.052c0,1.443-1.238,2.611-2.765,2.611l0,0c-1.528,0-2.767-1.168-2.767-2.611v-29.305
		c0-1.441,1.238-2.61,2.767-2.61l0,0c1.526,0,2.765,1.169,2.765,2.61V300.052z"/>
	<path fill="#F9F9F9" d="M264.209,297.451c1.612,1.391,2.004,3.572,0.879,4.875l0,0c-1.125,1.305-3.341,1.235-4.953-0.156
		l-32.727-28.246c-1.61-1.389-2.003-3.572-0.877-4.877l0,0c1.124-1.303,3.342-1.231,4.951,0.158L264.209,297.451z"/>
	<path fill="#F9F9F9" d="M55.845,273.015c-1.087-1.418-0.986-3.318,0.226-4.248l0,0c1.213-0.932,3.076-0.536,4.163,0.881
		l22.088,28.796c1.087,1.416,0.985,3.317-0.227,4.248l0,0c-1.211,0.929-3.075,0.534-4.161-0.882L55.845,273.015z"/>
	<g>
		<path fill="#F9F9F9" d="M144.648,301.865c-1.068,1.432-2.926,1.852-4.148,0.938l0,0c-1.226-0.912-1.354-2.812-0.286-4.244
			l21.691-29.098c1.066-1.432,2.924-1.852,4.149-0.938l0,0c1.224,0.912,1.352,2.812,0.285,4.244L144.648,301.865z"/>
		<path fill="#F9F9F9" d="M162.845,273.244c-1.087-1.418-0.986-3.318,0.226-4.248l0,0c1.213-0.931,3.076-0.535,4.163,0.881
			l22.088,28.797c1.087,1.416,0.985,3.316-0.227,4.248l0,0c-1.211,0.929-3.075,0.533-4.161-0.883L162.845,273.244z"/>
	</g>
	<g>
		<path fill="#F9F9F9" d="M503.297,301.818c-1.068,1.434-2.926,1.854-4.147,0.939l0,0c-1.228-0.914-1.354-2.813-0.287-4.246
			l21.69-29.096c1.066-1.433,2.924-1.853,4.15-0.938l0,0c1.223,0.912,1.352,2.813,0.284,4.243L503.297,301.818z"/>
		<path fill="#F9F9F9" d="M521.493,273.199c-1.087-1.418-0.985-3.32,0.226-4.248l0,0c1.213-0.931,3.076-0.535,4.163,0.881
			l22.088,28.797c1.087,1.416,0.985,3.316-0.228,4.248l0,0c-1.211,0.929-3.074,0.533-4.16-0.883L521.493,273.199z"/>
	</g>
	<path fill="#F9F9F9" d="M100.852,269.746c1.066-1.436,2.922-1.857,4.147-0.947l0,0c1.227,0.912,1.358,2.812,0.293,4.246
		l-21.644,29.131c-1.063,1.435-2.921,1.857-4.148,0.945l0,0c-1.225-0.91-1.356-2.811-0.292-4.244L100.852,269.746z"/>
</g>
<g>
	<path fill="#FFFFFF" d="M270.771,335.218c-1.32,0-2.359-0.959-3.159-2.879c-0.84,1.879-2,3.479-3.479,4.8
		c-1.56,1.438-3.08,2.159-4.56,2.159c-1.399,0-2.12-1.08-2.12-3.198c0-1.722,1.56-4.761,4.64-9.199
		c3.159-4.56,5.599-6.838,7.239-6.838c0.64,0,1.359,0.438,1.359,1.078c0-0.039-0.959,1-2.919,3.12
		c-2.239,2.439-4.039,4.56-5.439,6.439c-1.959,2.68-2.919,4.6-2.919,5.84c0,0.319,0.08,0.639,0.24,0.959
		c0.2,0.44,0.52,0.641,0.88,0.641c1.2,0,2.56-0.92,4.12-2.719c1.32-1.603,2.12-2.961,2.399-4.041c-0.2-0.6-0.28-1.279-0.28-2.078
		c0-2,0.68-2.881,2.04-2.68c0.44,0.08,0.68,0.479,0.68,1.237c0,0.521-0.12,1.24-0.32,2.121c-0.16,0.521-0.32,1.039-0.44,1.56
		c0.08,0.479,0.28,1,0.56,1.561c0.44,0.84,1,1.24,1.64,1.24c0.6,0,1.28-0.441,2.04-1.281c0.16-0.199,0.32-0.279,0.48-0.279
		c0.12,0,0.2,0.08,0.24,0.279c0,0.201-0.12,0.4-0.32,0.68C272.531,334.738,271.691,335.218,270.771,335.218z"/>
	<path fill="#FFFFFF" d="M282.652,330.419c0.28,0.879-0.6,2.56-2.64,5.039c-2.12,2.601-3.919,3.879-5.399,3.879h-0.64
		c-0.68,0-1.24-0.358-1.64-1.08c-0.32-0.52-0.48-1.079-0.48-1.68c0-1.6,1.16-3.838,3.479-6.719c2.359-2.92,4.239-4.359,5.679-4.359
		c1.36,0,2.04,0.722,2.04,2.16c0,0.439-0.08,0.92-0.2,1.439c0.04,0.08,0.2,0.121,0.4,0.121c0.68,0,1.56-0.24,2.56-0.76
		C285.771,328.939,284.691,329.58,282.652,330.419z M280.092,328.699c-0.92,0-2.2,1.08-3.919,3.281
		c-1.68,2.158-2.479,3.799-2.439,4.918c0.04,0.84,0.36,1.24,0.959,1.24c1.12,0,2.6-1.039,4.399-3.16c1.72-2.039,2.6-3.52,2.6-4.439
		C281.252,330.3,280.732,329.699,280.092,328.699z"/>
	<path fill="#FFFFFF" d="M298.25,337.059c-1.759,1.521-2.959,2.319-3.559,2.438c-0.2,0.041-0.36,0.041-0.56,0.041
		c-1.24,0-2.28-0.721-2.28-1.881c0-0.48,0.08-1.08,0.28-1.76c0.16-0.52,0.32-1.039,0.44-1.559c-3.759,4.397-6.119,5.356-7.199,5.356
		s-1.68-0.68-1.8-2.038c-0.12-1.16,0.68-2.96,2.08-4.919c0,0-1.16,1.039-2.36,2.397c-0.08,0.08-0.24,0.16-0.4,0.16
		c-0.12,0-0.16-0.08-0.16-0.198c0-0.16,0.12-0.361,0.36-0.681l5.519-6.479c0.68-0.8,1.48-1.199,2.28-1.199
		c0.6,0,0.919,0.24,0.919,0.722c0,0.199-0.08,0.358-0.24,0.52c-1,0.92-2.28,2.439-3.759,4.559c-1.88,2.641-2.8,4.521-2.68,5.639
		c0.04,0.361,0.2,0.521,0.48,0.521c0.52,0,2.04-0.361,4.879-3.32c0.32-0.319,1.72-1.879,4.079-4.879
		c2.08-2.6,3.439-3.879,4.079-3.879c0.88,0,1.36,0.359,1.44,1.08c0.04,0.238-0.52,1.039-1.68,2.359
		c-1.52,1.84-2.56,3.158-3.12,3.959c-1.12,1.639-1.64,2.879-1.56,3.719c0.04,0.48,0.24,0.721,0.6,0.721c0.16,0,0.36-0.041,0.64-0.16
		c1.92-0.84,4.119-2.76,6.599-5.6c0.16-0.199,0.32-0.279,0.479-0.279c0.16,0,0.24,0.08,0.24,0.24c0,0.119-0.04,0.318-0.28,0.6
		C300.81,334.658,299.93,335.578,298.25,337.059z"/>
	<path fill="#FFFFFF" d="M316.811,326.419c0,0.24-1.561,0.562-4.72,0.961c-3.6,0.479-5.479,0.761-5.639,0.8
		c-0.52,0.438-1.4,1.68-2.64,3.721c-1.04,1.761-2.2,3.839-2.2,5.277c0,0.881,0.6,1.479,2.04,1.479c1.439,0,4.08-1.199,4.919-1.719
		c1.359-0.84,3.12-2.32,4.8-4.119c0.359-0.361,0.6-0.561,0.76-0.561c0.08,0,0.119,0.039,0.119,0.16c0,0.199-0.199,0.559-0.6,1.039
		c-1.279,1.561-2.841,3-4.761,4.16c-1.879,1.16-3.639,1.68-5.159,1.84c-2.199,0.199-3.519-0.361-3.519-2.801
		c0-1,0.48-2.479,1.439-4.359c0.72-1.439,1.44-2.879,2.2-4.279c-1.4,0.281-2.12,0-2.12-0.799c0-0.281,0.16-0.52,0.44-0.721
		c0.16-0.119,0.36-0.199,0.52-0.24c0,0,0.12,0,0.36-0.039h2.32c0.52-0.641,1-1.279,1.479-1.959c0.721-0.92,1.279-1.441,1.721-1.602
		c0.199-0.039,0.479,0.041,0.92,0.28c0.44,0.24,0.64,0.479,0.64,0.72c0,0.36-0.64,1.239-1.92,2.68c0.68,0.041,2.2,0.08,4.6,0.041
		c2.199-0.041,3.479-0.041,3.88-0.08C316.77,326.339,316.811,326.38,316.811,326.419z"/>
	<path fill="#FFFFFF" d="M313.812,339.697c-1.16,0-2.04-0.68-2.04-2.639c0-0.24,0.04-0.48,0.079-0.721
		c0.24-1.398,1.04-3.238,2.399-5.438c1.48-2.399,2.68-3.642,3.68-3.681c0.48,0,1.4,0.48,1.4,0.959c0-0.038-1,1.279-3.04,3.921
		c-2,2.601-2.999,4.438-2.999,5.521c0,0.92,0.399,1.278,0.999,1.278c1.319,0,3.96-2,4.52-2.479c1.44-1.199,2.28-1.998,3.079-2.998
		c0.521-0.68,0.96-0.92,1.08-0.92s0.16,0.08,0.16,0.24c0,0.278-0.68,1.118-1.72,2.198
		C319.451,336.898,316.972,339.697,313.812,339.697z M321.211,325.5c-0.92,0-1.68-0.68-1.68-1.438s0.52-1.119,1.52-1.119
		c0.76,0,1.681,0.56,1.681,1.32C322.73,324.9,321.852,325.5,321.211,325.5z"/>
	<path fill="#FFFFFF" d="M331.771,333.139c-1.962,2-3.359,3.881-4.12,5.642c0.12-0.041,0.56-0.08,1.279-0.08
		c0.761,0,1.359,0.358,1.8,1.077c0.359,0.562,0.521,1.121,0.521,1.722c0,1.278-0.56,2.799-1.68,4.52
		c-1.239,1.959-2.601,2.92-3.999,2.92c-1.4,0-2.08-1.041-2.08-3.08c0-1.24,0.32-2.641,1-4.24l1.84-4.279
		c-1.561,1.08-2.84,1.681-3.76,1.761c-1.521,0.121-2.279-0.601-2.279-2.158c0-1.159,0.72-2.521,2.119-4.159
		c1.24-1.4,2.479-2.439,3.72-3.119c2.96-1.642,5.358-2.439,7.159-2.439c0.6,0,0.959,0.24,1.08,0.68v1.279l0.479,0.359
		c0.12,0.121,0.2,0.201,0.2,0.281s-0.041,0.198-0.121,0.319L331.771,333.139z M332.33,329.221c-1.319,0-3.318,0.84-5.918,2.521
		c-2.92,1.879-4.521,3.758-4.879,5.559c-0.121,0.68,0.159,1,0.92,1c1.318,0,3.119-1.16,5.357-3.48l5.039-5.359
		C332.811,329.3,332.65,329.221,332.33,329.221z M329.012,340.018c-0.279-0.199-0.881-0.358-1.76-0.397
		c-0.52,0.84-1.04,1.918-1.6,3.278c-0.602,1.56-0.92,2.761-0.92,3.521c0,0.279,0.079,0.639,0.278,0.998
		c0.24,0.479,0.562,0.721,0.92,0.721c0.96,0,1.88-0.92,2.721-2.76c0.68-1.56,1.04-2.799,1-3.68
		C329.611,340.857,329.411,340.298,329.012,340.018z"/>
	<path fill="#FFFFFF" d="M349.449,337.059c-1.76,1.521-2.959,2.319-3.56,2.438c-0.2,0.041-0.359,0.041-0.561,0.041
		c-1.24,0-2.279-0.721-2.279-1.881c0-0.48,0.08-1.08,0.279-1.76c0.16-0.52,0.32-1.039,0.439-1.559
		c-3.759,4.397-6.118,5.356-7.197,5.356c-1.08,0-1.681-0.68-1.802-2.038c-0.118-1.16,0.681-2.96,2.08-4.919
		c0,0-1.159,1.039-2.358,2.397c-0.08,0.08-0.24,0.16-0.4,0.16c-0.119,0-0.16-0.08-0.16-0.198c0-0.16,0.12-0.361,0.36-0.681
		l5.519-6.479c0.681-0.8,1.48-1.199,2.28-1.199c0.601,0,0.92,0.24,0.92,0.722c0,0.199-0.08,0.358-0.24,0.52
		c-1,0.92-2.279,2.439-3.759,4.559c-1.881,2.641-2.801,4.521-2.68,5.639c0.039,0.361,0.199,0.521,0.479,0.521
		c0.521,0,2.04-0.361,4.881-3.32c0.318-0.319,1.719-1.879,4.077-4.879c2.08-2.6,3.439-3.879,4.08-3.879
		c0.879,0,1.359,0.359,1.439,1.08c0.04,0.238-0.521,1.039-1.68,2.359c-1.521,1.84-2.561,3.158-3.119,3.959
		c-1.12,1.639-1.642,2.879-1.562,3.719c0.041,0.48,0.24,0.721,0.602,0.721c0.159,0,0.359-0.041,0.64-0.16
		c1.92-0.84,4.119-2.76,6.6-5.6c0.159-0.199,0.319-0.279,0.479-0.279c0.159,0,0.239,0.08,0.239,0.24c0,0.119-0.039,0.318-0.279,0.6
		C352.009,334.658,351.129,335.578,349.449,337.059z"/>
	<path fill="#FFFFFF" d="M358.93,337.539c-2.039,1.479-3.799,2.238-5.198,2.238c-0.279,0-0.56-0.039-0.8-0.119
		c-1.721-0.48-2.561-1.439-2.561-2.879c0-1.881,1.16-4.039,3.479-6.479c2.359-2.441,4.479-3.68,6.358-3.68
		c1.239,0,2.079,0.76,2.079,1.719c0,1.479-1.199,2.959-3.56,4.4c-2.119,1.278-3.92,1.918-5.318,1.918
		c-0.239,0-0.44-0.039-0.561-0.08c-0.399,0.721-0.6,1.479-0.6,2.28c0,1.397,0.639,2.078,1.959,2.078s3.039-0.879,5.159-2.679
		c1.64-1.319,2.999-2.68,4.159-4.159c0.239-0.32,0.438-0.479,0.641-0.479c0.159,0,0.239,0.08,0.239,0.239
		c0,0.199-0.12,0.399-0.319,0.681C362.609,334.5,360.89,336.139,358.93,337.539z M360.449,327.779c-0.799,0-1.919,0.602-3.359,1.801
		c-1.119,0.92-1.999,1.84-2.679,2.719c-0.32,0.441-0.64,0.882-0.96,1.4c0.12,0.039,0.32,0.08,0.52,0.08
		c1.04,0,2.359-0.52,3.959-1.52c1.761-1.16,2.84-2.359,3.28-3.641C361.41,328.061,361.13,327.779,360.449,327.779z"/>
</g>
</svg>
